[Header]
FileType HTR
DataType HTRS
FileVersion 1
NumSegments 64
NumFrames 2
DataFrameRate 24
EulerRotationOrder ZYX
CalibrationUnits mm
RotationUnits Degrees
GlobalAxisofGravity Y
BoneLengthAxis Y
ScaleFactor 1.0
[SegmentNames&Hierarchy]
Hips	GLOBAL
Spine	Hips
Spine1	Spine
Spine2	Spine1
Neck	Spine2
Head	Neck
LeftEye	Head
RightEye	Head
LeftShoulder	Spine2
LeftArm	LeftShoulder
LeftForeArm	LeftArm
LeftHand	LeftForeArm
LeftHandThumb1	LeftHand
LeftHandThumb2	LeftHandThumb1
LeftHandThumb3	LeftHandThumb2
LeftHandThumb4	LeftHandThumb3
LeftHandIndex1	LeftHand
LeftHandIndex2	LeftHandIndex1
LeftHandIndex3	LeftHandIndex2
LeftHandIndex4	LeftHandIndex3
LeftHandMiddle1	LeftHand
LeftHandMiddle2	LeftHandMiddle1
LeftHandMiddle3	LeftHandMiddle2
LeftHandMiddle4	LeftHandMiddle3
LeftHandRing1	LeftHand
LeftHandRing2	LeftHandRing1
LeftHandRing3	LeftHandRing2
LeftHandRing4	LeftHandRing3
LeftHandPinky1	LeftHand
LeftHandPinky2	LeftHandPinky1
LeftHandPinky3	LeftHandPinky2
LeftHandPinky4	LeftHandPinky3
RightShoulder	Spine2
RightArm	RightShoulder
RightForeArm	RightArm
RightHand	RightForeArm
RightHandPinky1	RightHand
RightHandPinky2	RightHandPinky1
RightHandPinky3	RightHandPinky2
RightHandPinky4	RightHandPinky3
RightHandRing1	RightHand
RightHandRing2	RightHandRing1
RightHandRing3	RightHandRing2
RightHandRing4	RightHandRing3
RightHandMiddle1	RightHand
RightHandMiddle2	RightHandMiddle1
RightHandMiddle3	RightHandMiddle2
RightHandMiddle4	RightHandMiddle3
RightHandIndex1	RightHand
RightHandIndex2	RightHandIndex1
RightHandIndex3	RightHandIndex2
RightHandIndex4	RightHandIndex3
RightHandThumb1	RightHand
RightHandThumb2	RightHandThumb1
RightHandThumb3	RightHandThumb2
RightHandThumb4	RightHandThumb3
LeftUpLeg	Hips
LeftLeg	LeftUpLeg
LeftFoot	LeftLeg
LeftToeBase	LeftFoot
RightUpLeg	Hips
RightLeg	RightUpLeg
RightFoot	RightLeg
RightToeBase	RightFoot
[BasePosition]
Hips	0	0	0	0	0	0	1
Spine	0	0	0	0	0	0	1
Spine1	0	0	0	0	0	0	1
Spine2	0	0	0	0	0	0	1
Neck	0	0	0	0	0	0	1
Head	0	0	0	0	0	0	1
LeftEye	0	0	0	0	0	0	1
RightEye	0	0	0	0	0	0	1
LeftShoulder	0	0	0	0	0	0	1
LeftArm	0	0	0	0	0	0	1
LeftForeArm	0	0	0	0	0	0	1
LeftHand	0	0	0	0	0	0	1
LeftHandThumb1	0	0	0	0	0	0	1
LeftHandThumb2	0	0	0	0	0	0	1
LeftHandThumb3	0	0	0	0	0	0	1
LeftHandThumb4	0	0	0	0	0	0	1
LeftHandIndex1	0	0	0	0	0	0	1
LeftHandIndex2	0	0	0	0	0	0	1
LeftHandIndex3	0	0	0	0	0	0	1
LeftHandIndex4	0	0	0	0	0	0	1
LeftHandMiddle1	0	0	0	0	0	0	1
LeftHandMiddle2	0	0	0	0	0	0	1
LeftHandMiddle3	0	0	0	0	0	0	1
LeftHandMiddle4	0	0	0	0	0	0	1
LeftHandRing1	0	0	0	0	0	0	1
LeftHandRing2	0	0	0	0	0	0	1
LeftHandRing3	0	0	0	0	0	0	1
LeftHandRing4	0	0	0	0	0	0	1
LeftHandPinky1	0	0	0	0	0	0	1
LeftHandPinky2	0	0	0	0	0	0	1
LeftHandPinky3	0	0	0	0	0	0	1
LeftHandPinky4	0	0	0	0	0	0	1
RightShoulder	0	0	0	0	0	0	1
RightArm	0	0	0	0	0	0	1
RightForeArm	0	0	0	0	0	0	1
RightHand	0	0	0	0	0	0	1
RightHandPinky1	0	0	0	0	0	0	1
RightHandPinky2	0	0	0	0	0	0	1
RightHandPinky3	0	0	0	0	0	0	1
RightHandPinky4	0	0	0	0	0	0	1
RightHandRing1	0	0	0	0	0	0	1
RightHandRing2	0	0	0	0	0	0	1
RightHandRing3	0	0	0	0	0	0	1
RightHandRing4	0	0	0	0	0	0	1
RightHandMiddle1	0	0	0	0	0	0	1
RightHandMiddle2	0	0	0	0	0	0	1
RightHandMiddle3	0	0	0	0	0	0	1
RightHandMiddle4	0	0	0	0	0	0	1
RightHandIndex1	0	0	0	0	0	0	1
RightHandIndex2	0	0	0	0	0	0	1
RightHandIndex3	0	0	0	0	0	0	1
RightHandIndex4	0	0	0	0	0	0	1
RightHandThumb1	0	0	0	0	0	0	1
RightHandThumb2	0	0	0	0	0	0	1
RightHandThumb3	0	0	0	0	0	0	1
RightHandThumb4	0	0	0	0	0	0	1
LeftUpLeg	0	0	0	0	0	0	1
LeftLeg	0	0	0	0	0	0	1
LeftFoot	0	0	0	0	0	0	1
LeftToeBase	0	0	0	0	0	0	1
RightUpLeg	0	0	0	0	0	0	1
RightLeg	0	0	0	0	0	0	1
RightFoot	0	0	0	0	0	0	1
RightToeBase	0	0	0	0	0	0	1
[Hips]
1	4.750736237	1016.508118	15.54360771	-1.036806822	1.487546563	-5.373288155	1.0
2	9.756192207	1019.065247	12.07748604	0.3668946922	2.880524158	-4.526058674	1.0
[Spine]
1	0	101.8159943	1.315000057	1.233511329	-1.26404953	2.978038788	1.0
2	0	101.8159943	1.315000057	1.968266249	-0.9522667527	2.435813189	1.0
[Spine1]
1	0	100.8349991	-10.00800037	0.7521908283	0.1872796267	5.947592735	1.0
2	0	100.8349991	-10.00800037	0.9219442606	0.1868176907	5.730025768	1.0
[Spine2]
1	0	91	-13.73399925	0.7868236303	0.7048847079	5.861685276	1.0
2	0	91	-13.73399925	0.9521360993	0.6991081834	5.648144722	1.0
[Neck]
1	0	166.7169952	-25.16200066	1.05607903	-0.2649562359	-2.169208527	1.0
2	0	166.7169952	-25.16200066	0.5366526842	-0.5237816572	-2.246160269	1.0
[Head]
1	0	96.17900085	16.84999847	1.492036343	0.7629027963	-8.123030663	1.0
2	0	96.17900085	16.84999847	-1.633054614	-0.7356626987	-8.300388336	1.0
[LeftEye]
1	30.6760006	64.09500122	92.83599854	0	0	0	1.0
2	30.6760006	64.09500122	92.83599854	0	0	0	1.0
[RightEye]
1	-30.6760006	64.09500122	92.83499908	0	0	0	1.0
2	-30.6760006	64.09500122	92.83499908	0	0	0	1.0
[LeftShoulder]
1	45.70400238	109.4599991	-26.28000069	4.900876045	-13.35861588	-6.051224709	1.0
2	45.70400238	109.4599991	-26.28000069	4.705471992	-14.35098839	-5.2748909	1.0
[LeftArm]
1	105.923996	-5.24600029	-22.32099915	-3.048750401	4.395027161	-83.67141724	1.0
2	105.923996	-5.24600029	-22.32099915	-7.612999439	5.334593296	-82.66907501	1.0
[LeftForeArm]
1	278.414978	-0.0009999999311	0	-5.302844784e-06	-14.50674534	-0.0001781638275	1.0
2	278.414978	-0.0009999999311	0	7.92982155e-06	-22.01030731	-0.0002322673827	1.0
[LeftHand]
1	283.2879944	0	0	-27.77378464	-1.11013484	-10.05003548	1.0
2	283.2879944	0	0	-24.60240173	-3.196436405	-3.592550278	1.0
[LeftHandThumb1]
1	24.6609993	-15.75	26.8239994	18.09016228	-3.880748272	10.23080635	1.0
2	24.6609993	-15.75	26.8239994	18.06578827	-3.89697504	10.21935844	1.0
[LeftHandThumb2]
1	32.29800034	-18.64699936	18.64699936	-0.4590609074	32.77690887	-2.855211735	1.0
2	32.29800034	-18.64699936	18.64699936	-0.4811501503	32.72137833	-2.868257046	1.0
[LeftHandThumb3]
1	26.52600098	-15.31499958	15.31499958	2.087849379	9.317580223	-0.01895544678	1.0
2	26.52600098	-15.31499958	15.31499958	2.08178544	9.295450211	-0.0245175343	1.0
[LeftHandThumb4]
1	19.54599953	-11.28499985	11.28499985	0	0	0	1.0
2	19.54599953	-11.28499985	11.28499985	0	0	0	1.0
[LeftHandIndex1]
1	91.09299469	-5.170999527	22.60099792	-0.3012938499	4.670433521	-7.844826698	1.0
2	91.09299469	-5.170999527	22.60099792	-0.01968487911	4.295518875	-4.307720661	1.0
[LeftHandIndex2]
1	36.76399994	0	0	-0.6282400489	2.77045846	-20.57312584	1.0
2	36.76399994	0	0	-0.4674685597	2.449724197	-17.04380608	1.0
[LeftHandIndex3]
1	28.83100128	0	0	-0.1097455919	0.8055473566	-10.17069435	1.0
2	28.83100128	0	0	-0.05789195374	0.4547665417	-6.644488335	1.0
[LeftHandIndex4]
1	23.92700005	0	0	0	0	0	1.0
2	23.92700005	0	0	0	0	0	1.0
[LeftHandMiddle1]
1	95.33399963	0	0	-1.52174437	8.677751541	-15.88118458	1.0
2	95.33399963	0	0	-1.100855947	8.578754425	-12.2992239	1.0
[LeftHandMiddle2]
1	36.98199844	0	0	-1.426888108	3.823400021	-33.41778183	1.0
2	36.98199844	0	0	-1.191967726	3.552599192	-29.87252235	1.0
[LeftHandMiddle3]
1	29.50900078	0	0	-0.149025023	1.485641956	-12.2647953	1.0
2	29.50900078	0	0	-0.07836667448	1.141817093	-8.737231255	1.0
[LeftHandMiddle4]
1	28.3390007	0	0	0	0	0	1.0
2	28.3390007	0	0	0	0	0	1.0
[LeftHandRing1]
1	91.04499817	-0.4390000105	-18.65100098	-3.023374081	11.54988956	-26.95900536	1.0
2	91.04499817	-0.4390000105	-18.65100098	-2.543985367	11.16195297	-23.37117004	1.0
[LeftHandRing2]
1	31.54000092	0	0	-1.197486639	4.055517673	-40.20160294	1.0
2	31.54000092	0	0	-0.9895119667	3.772222519	-36.64797592	1.0
[LeftHandRing3]
1	29.37700081	0	0	-0.09223747998	1.90337348	-19.33780289	1.0
2	29.37700081	0	0	-0.0196015574	1.55984199	-15.809762	1.0
[LeftHandRing4]
1	26.47500038	0	0	0	0	0	1.0
2	26.47500038	0	0	0	0	0	1.0
[LeftHandPinky1]
1	80.77799988	-4.887000084	-38.06099701	-5.22219944	16.12825203	-36.9026413	1.0
2	80.77799988	-4.887000084	-38.06099701	-4.45711422	15.5935297	-33.24468613	1.0
[LeftHandPinky2]
1	36	0	0	-1.945596457	3.817507505	-45.66316223	1.0
2	36	0	0	-1.684427142	3.574450254	-42.08577347	1.0
[LeftHandPinky3]
1	21.14200211	0	0	-0.5433523059	2.833763361	-20.52732658	1.0
2	21.14200211	0	0	-0.4012842774	2.509807348	-16.99508095	1.0
[LeftHandPinky4]
1	19.75699997	0	0	0	0	0	1.0
2	19.75699997	0	0	0	0	0	1.0
[RightShoulder]
1	-45.70000076	109.4620056	-26.28000069	4.810459137	2.868922472	5.722984314	1.0
2	-45.70000076	109.4620056	-26.28000069	4.794362068	3.544872046	5.05213356	1.0
[RightArm]
1	-105.9280014	-5.248000145	-22.32099915	0.1354183853	1.378135085	67.340065	1.0
2	-105.9280014	-5.248000145	-22.32099915	2.312553883	0.6449472308	66.83058929	1.0
[RightForeArm]
1	-278.414978	0	0	-6.78812512e-06	17.7365799	-1.607183003e-05	1.0
2	-278.414978	0	0	-3.362440339e-06	21.14044189	-1.226723998e-05	1.0
[RightHand]
1	-283.2879944	0	0.0009999999311	-12.68407345	-6.830766201	11.79688835	1.0
2	-283.2879944	0	0.0009999999311	-9.809862137	-9.355473518	6.574363708	1.0
[RightHandPinky1]
1	-80.76699829	-4.885000229	-38.06000137	-5.222106457	-16.1293602	36.90295792	1.0
2	-80.76699829	-4.885000229	-38.06000137	-4.142633915	-15.56472492	31.65853882	1.0
[RightHandPinky2]
1	-36	0	0.0009999999311	-1.944215178	-3.815821648	45.6631279	1.0
2	-36	0	0.0009999999311	-1.573710918	-3.46123004	40.51949692	1.0
[RightHandPinky3]
1	-21.14200211	0	0	-0.7654371262	0.05477982387	22.12399673	1.0
2	-21.14200211	0	0	-0.5547887683	0.5172741413	17.05745125	1.0
[RightHandPinky4]
1	-19.75699997	0	0	0	0	0	1.0
2	-19.75699997	0	0	0	0	0	1.0
[RightHandRing1]
1	-91.03599548	-0.4390000105	-18.65100098	-3.02329874	-11.5495348	26.9591198	1.0
2	-91.03599548	-0.4390000105	-18.65100098	-2.342741966	-11.06910706	21.80305862	1.0
[RightHandRing2]
1	-31.54000092	0	0	-1.197300315	-4.054999828	40.20165253	1.0
2	-31.54000092	0	0	-0.9040035009	-3.643872023	35.0938797	1.0
[RightHandRing3]
1	-29.37700081	0	0	-0.1383097172	0.09006325901	17.81516075	1.0
2	-29.37700081	0	0	-0.0538212657	0.5874711275	12.74774837	1.0
[RightHandRing4]
1	-26.47500038	0	0	0	0	0	1.0
2	-26.47500038	0	0	0	0	0	1.0
[RightHandMiddle1]
1	-95.32500458	0	0	-1.521728039	-8.677536964	15.88130665	1.0
2	-95.32500458	0	0	-0.9219655991	-8.436329842	10.74001884	1.0
[RightHandMiddle2]
1	-36.98199844	0	0	-1.426760077	-3.822959423	33.41781998	1.0
2	-36.98199844	0	0	-1.094513297	-3.429331064	28.32271576	1.0
[RightHandMiddle3]
1	-29.50900078	0	0	-0.2534596622	-1.678245425	15.89936352	1.0
2	-29.50900078	0	0	-0.1273681074	-1.189879179	10.82816029	1.0
[RightHandMiddle4]
1	-28.3390007	0	0.0009999999311	0	0	0	1.0
2	-28.3390007	0	0.0009999999311	0	0	0	1.0
[RightHandIndex1]
1	-91.08300018	-5.167999744	22.60099792	-0.3012934029	-4.670324802	7.844889164	1.0
2	-91.08300018	-5.167999744	22.60099792	0.1006883904	-4.255191326	2.750443459	1.0
[RightHandIndex2]
1	-36.76399994	0	0	-0.6281937957	-2.770177841	20.57320404	1.0
2	-36.76399994	0	0	-0.4035128653	-2.306481361	15.50333977	1.0
[RightHandIndex3]
1	-28.83100128	0	0	-0.2385087609	-0.1574724615	13.84470749	1.0
2	-28.83100128	0	0	-0.138575241	0.3421498239	8.777276993	1.0
[RightHandIndex4]
1	-23.92700005	0	0	0	0	0	1.0
2	-23.92700005	0	0	0	0	0	1.0
[RightHandThumb1]
1	-24.64799881	-15.72700024	26.82600021	18.08984566	3.880953789	-10.23103809	1.0
2	-24.64799881	-15.72700024	26.82600021	18.13368988	3.803127527	-10.23546982	1.0
[RightHandThumb2]
1	-32.29800034	-18.64699936	18.64699936	-0.4598017335	-32.77558136	2.856967449	1.0
2	-32.29800034	-18.64699936	18.64699936	-0.3961524963	-32.93519592	2.819285631	1.0
[RightHandThumb3]
1	-26.52600098	-15.31399918	15.31399918	1.866268635	-8.463839531	0.8300104141	1.0
2	-26.52600098	-15.31399918	15.31399918	1.882788897	-8.527709961	0.8144708872	1.0
[RightHandThumb4]
1	-19.54599953	-11.28499985	11.28499985	0	0	0	1.0
2	-19.54599953	-11.28499985	11.28499985	0	0	0	1.0
[LeftUpLeg]
1	82.07800293	-67.51699829	-15.99599934	-16.48684883	15.18105412	11.84080887	1.0
2	82.07800293	-67.51699829	-15.99599934	-19.65324211	15.26052189	10.78102016	1.0
[LeftLeg]
1	0	-443.7049866	2.845999956	22.70204926	7.896816254	5.787898064	1.0
2	0	-443.7049866	2.845999956	24.4917202	6.348171711	4.221911907	1.0
[LeftFoot]
1	0	-444.2789917	-29.8219986	-2.013903379	3.081223488	-8.878312111	1.0
2	0	-444.2789917	-29.8219986	0.1593974978	3.178746939	-9.584360123	1.0
[LeftToeBase]
1	0	-87.28699493	107.1060028	-0.4463385344	5.711680842e-06	2.953254352e-07	1.0
2	0	-87.28699493	107.1060028	-1.385111809	0.01283988636	0.7955389023	1.0
[RightUpLeg]
1	-82.07800293	-67.51699829	-15.99599934	-2.489714861	-4.584821701	10.71563148	1.0
2	-82.07800293	-67.51699829	-15.99599934	-4.134324074	-4.032351971	10.1238966	1.0
[RightLeg]
1	0	-443.7049866	2.861999989	12.18537521	-5.659205914	2.109300375	1.0
2	0	-443.7049866	2.861999989	11.71825695	-5.690587521	1.334298134	1.0
[RightFoot]
1	0	-444.2770081	-29.83799934	-9.883699417	-0.3350055516	-7.81896019	1.0
2	0	-444.2770081	-29.83799934	-9.196721077	-1.62168622	-6.989079952	1.0
[RightToeBase]
1	0	-87.28699493	107.1060028	-0.556363523	-4.984418865e-06	3.52408847e-07	1.0
2	0	-87.28699493	107.1060028	-1.177250147	-2.979723604e-06	1.645291121e-07	1.0
[EndOfFile]
